<svg xmlns="http://www.w3.org/2000/svg" width="28" height="28" viewBox="0 0 24 23.63">
  <path id="icons8-github" d="M15,3a11.993,11.993,0,0,0-2.908,23.63A1.751,1.751,0,0,1,12,26.047V24H10.492a2.088,2.088,0,0,1-1.9-1.009c-.393-.729-.461-1.844-1.435-2.526-.289-.227-.069-.486.264-.451a3.145,3.145,0,0,1,1.605,1.222,1.542,1.542,0,0,0,1.6.769,11.466,11.466,0,0,0,1.691-.121A3.764,3.764,0,0,1,13.9,19.918c-4-.411-5.9-2.4-5.9-5.1a4.9,4.9,0,0,1,1.336-3.233c-.276-.94-.623-2.857.106-3.587a4.177,4.177,0,0,1,3.146,1.481,9.074,9.074,0,0,1,5.836,0A4.174,4.174,0,0,1,21.565,8c.732.731.381,2.656.1,3.594a4.9,4.9,0,0,1,1.328,3.226c0,2.7-1.9,4.684-5.894,5.1a4.209,4.209,0,0,1,1.9,3.4v2.734a1.759,1.759,0,0,1-.035.268A11.994,11.994,0,0,0,15,3Z" transform="translate(-3 -3)" fill=#fff"/>
</svg>
