<svg xmlns="http://www.w3.org/2000/svg" width="28" height="28" viewBox="0 0 70.248 70.719">
  <g id="icon-whatsApp" transform="translate(-157.18 644.551)">
    <path id="Caminho_277" data-name="Caminho 277" d="M190.049-644.456A35.472,35.472,0,0,0,163.14-628.84a35.627,35.627,0,0,0-5.7,16.4A36.074,36.074,0,0,0,161.1-593.5c.925,1.807.925,1.793-.911,8.387-.578,2.068-2.053,7.5-2.6,9.514a15.126,15.126,0,0,0-.4,1.764c.043.043,1.807-.4,7.056-1.779,1.229-.318,4.179-1.084,6.55-1.692,4.989-1.272,4.483-1.272,7.36-.014a36.533,36.533,0,0,0,10.527,2.834,50.613,50.613,0,0,0,9.254-.217,34.8,34.8,0,0,0,26.085-19.448,33.688,33.688,0,0,0,3.412-15.327,31.283,31.283,0,0,0-.81-7.88A35.047,35.047,0,0,0,202.919-643,36.1,36.1,0,0,0,190.049-644.456Zm7.982,6.1a32.974,32.974,0,0,1,6.116,1.909,29.594,29.594,0,0,1,3.47,1.779,32.6,32.6,0,0,1,7.852,6.912,29.548,29.548,0,0,1,6.362,18.422,27.919,27.919,0,0,1-2.6,12.074,29.522,29.522,0,0,1-14.358,14.518,29.51,29.51,0,0,1-19.318,1.967,29.738,29.738,0,0,1-6.839-2.617,9.1,9.1,0,0,0-2.559-1.07c-.26,0-2.487.535-4.931,1.171-5.654,1.489-5.972,1.562-5.972,1.4,0-.318,1.489-5.885,1.894-7.1a8.076,8.076,0,0,0,.434-4.107,29.643,29.643,0,0,0-1.388-3.152,28.343,28.343,0,0,1-3.123-10.8,29.663,29.663,0,0,1,12.811-26.707,28.876,28.876,0,0,1,11.062-4.555,20.446,20.446,0,0,1,6.145-.448A22.223,22.223,0,0,1,198.031-638.354Z" fill="#fff"/>
    <path id="Caminho_278" data-name="Caminho 278" d="M282.98-513.681a3.694,3.694,0,0,0-2.154,1.417A10.1,10.1,0,0,0,278.685-502c1.258,3.947,6.637,10.946,11.279,14.662a34.43,34.43,0,0,0,9.543,5.408c3.326,1.1,6.492,1.388,8.459.766,3.543-1.113,5.567-3.629,5.567-6.883,0-1.128.029-1.084-1.215-1.779-1.186-.68-6.9-3.34-7.129-3.34-.578,0-1.171.593-3.065,3.022a6.945,6.945,0,0,1-1.359,1.4c-.578.3-1.287.116-3.181-.824a24.005,24.005,0,0,1-9.471-8.358c-1.359-2.024-1.4-2.371-.535-3.413,1.721-2.039,2.14-2.747,2.154-3.615a38.311,38.311,0,0,0-3.427-8.3,2.676,2.676,0,0,0-1.33-.448A3.924,3.924,0,0,0,282.98-513.681Z" transform="translate(-103.457 -111.833)" fill="#fff"/>
  </g>
</svg>
