<?xml version="1.0" standalone="no"?>
<!DOCTYPE svg PUBLIC "-//W3C//DTD SVG 20010904//EN"
 "http://www.w3.org/TR/2001/REC-SVG-20010904/DTD/svg10.dtd">
<svg version="1.0" xmlns="http://www.w3.org/2000/svg"
 width="340.000000pt" height="53.000000pt" viewBox="0 0 340.000000 53.000000"
 preserveAspectRatio="xMidYMid meet">

<g transform="translate(0.000000,53.000000) scale(0.100000,-0.100000)"
fill="#000000" stroke="none">
<path d="M849 258 c47 -140 48 -143 78 -146 l31 -3 46 138 c25 76 46 141 46
146 0 4 -13 7 -28 7 -28 0 -30 -4 -57 -101 -16 -55 -32 -102 -35 -104 -4 -2
-20 42 -36 98 -29 100 -30 102 -61 105 l-32 3 48 -143z"/>
<path d="M1090 255 l0 -145 90 0 c89 0 90 0 90 25 0 24 -2 25 -66 25 l-65 0 3
38 3 37 58 3 c49 3 57 6 57 22 0 18 -7 20 -60 20 l-60 0 0 35 0 35 65 0 c63 0
65 1 65 25 0 25 -1 25 -90 25 l-90 0 0 -145z"/>
<path d="M1310 256 l0 -146 30 0 c29 0 30 1 30 50 0 47 2 50 25 50 20 0 30
-10 50 -50 22 -43 29 -50 55 -50 l30 0 -29 58 -29 57 24 28 c31 36 31 78 0
114 -22 25 -31 28 -105 31 l-81 4 0 -146z m148 61 c5 -38 -14 -57 -54 -57 -34
0 -34 0 -34 46 l0 45 43 -3 c38 -3 42 -6 45 -31z"/>
<path d="M1570 255 l0 -145 30 0 30 0 0 145 0 145 -30 0 -30 0 0 -145z"/>
<path d="M1680 255 l0 -145 30 0 30 0 0 60 0 60 55 0 c52 0 55 1 55 25 0 24
-3 25 -55 25 l-55 0 0 35 0 34 63 3 c56 3 62 5 65 26 3 21 1 22 -92 22 l-96 0
0 -145z"/>
<path d="M1928 353 c-8 -27 -32 -92 -51 -145 l-36 -98 28 0 c23 0 31 6 40 30
9 28 13 30 65 30 52 0 55 -1 61 -30 5 -25 11 -30 36 -30 16 0 29 2 29 5 0 3
-23 68 -51 145 -49 132 -53 140 -78 140 -23 0 -29 -7 -43 -47z m65 -85 l16
-48 -36 0 c-32 0 -35 2 -29 25 9 36 26 78 30 74 2 -2 10 -25 19 -51z"/>
<path d="M2092 378 c2 -19 10 -24 46 -26 l42 -3 0 -120 0 -119 30 0 30 0 0
120 0 120 40 0 c36 0 40 3 40 25 l0 25 -116 0 c-114 0 -115 0 -112 -22z"/>
<path d="M2399 377 c-91 -61 -67 -237 36 -263 43 -11 103 13 125 49 25 40 26
126 3 174 -29 61 -105 80 -164 40z m104 -42 c39 -38 26 -160 -18 -171 -36 -9
-58 -1 -72 26 -18 35 -16 111 3 138 18 26 65 30 87 7z"/>
</g>
</svg>
